<?xml version="1.0" encoding="utf-8"?>
<svg viewBox="528.222 363.838 838.63 55.226" xmlns="http://www.w3.org/2000/svg">
  <path d="M 872.094 371.909 L 528.231 372.482 L 528.222 364.993 L 872.083 364.422 L 872.094 371.909 Z" style="fill: rgb(248, 192, 3);"/>
  <path d="M 1366.852 371.337 L 1022.991 371.909 L 1022.982 364.422 L 1366.843 363.85 L 1366.852 371.337 Z" style="stroke-width: 8px; fill: rgb(248, 192, 3);"/>
  <path d="M 1002.801 379.398 L 947.598 419.064 L 891.368 379.846 L 891.554 364.242 L 1002.68 363.838 L 1002.801 379.398 Z M 898.951 371.704 L 898.901 375.973 L 947.533 409.89 L 995.284 375.579 L 995.251 371.351 L 898.951 371.704 Z" style="fill: none;"/>
  <path d="M 1002.801 379.398 L 947.598 419.064 L 891.368 379.846 L 891.554 364.242 L 1002.68 363.838 L 1002.801 379.398 Z M 898.951 371.704 L 898.901 375.973 L 947.533 409.89 L 995.284 375.579 L 995.251 371.351 L 898.951 371.704 Z" style="fill: none;"/>
  <path d="M 1002.801 379.398 L 947.598 419.064 L 891.368 379.846 L 891.554 364.242 L 1002.68 363.838 L 1002.801 379.398 Z M 898.951 371.704 L 898.901 375.973 L 947.533 409.89 L 995.284 375.579 L 995.251 371.351 L 898.951 371.704 Z" style="fill: rgb(248, 192, 3);"/>
</svg>