<svg xmlns="http://www.w3.org/2000/svg" viewBox="0 0 386.78 114.44"><defs><style>.cls-1{fill:#b22629;}</style></defs><g id="Camada_2" data-name="Camada 2"><g id="Camada_1-2" data-name="Camada 1"><path class="cls-1" d="M14.54,4.75V113.14H0V4.75Z"/><path class="cls-1" d="M29.64,55.33c0-16.86,0-21.67-.16-25.59H43.35a61.37,61.37,0,0,1,.55,7.9c2.43-5.37,7.1-9.2,15.33-9.2,9.73,0,16.85,5.76,16.85,21.34v63.36H61.54V52.56c0-7.76-2.64-11-7.83-11-6.36,0-9.54,3.28-9.54,16.46v55.12H29.64Z"/><path class="cls-1" d="M102,87.58v3.75c0,6.37,2.18,10.76,7.76,10.76,5.27,0,7.45-3.25,7.45-9.69s-1.88-10.28-11.73-16.69C94.14,68.34,88.76,62.37,88.76,50.59c0-13.36,6.9-22.15,21-22.15,15.35,0,20.9,9,20.9,23.13V55.1H116.63V50.18c0-6.34-2-9.4-6.81-9.4s-6.6,3.34-6.6,8.59c0,5.43,1.76,7.87,9.66,13,13.62,8.76,19,14.62,19,28.32,0,15.61-7.51,23.74-22.62,23.74-17.74,0-22-11.4-22-23.13V87.58Z"/><path class="cls-1" d="M188.35,89.54c0,11.65,0,19.39.17,23.6H174.65a66.12,66.12,0,0,1-.56-8.23c-2.79,7.4-8.35,9.53-15.31,9.53-7.39,0-16.44-3.29-16.44-21.54V29.74h14.53V89.12c0,8.59,2.4,12.24,7.89,12.24s9.06-3.45,9.06-16.42V29.74h14.53Z"/><path class="cls-1" d="M203.87,113.14V0H218.4V113.14Z"/><path class="cls-1" d="M227,29.74h9.15V9.52h14.48V29.74h11V42.53h-11v52.1c0,4.09.63,7.64,5.76,7.64a21.21,21.21,0,0,0,4.82-.48v11c-2.68,1.22-6.67,1.5-9.67,1.5-9.45,0-15.39-3.36-15.39-17.09V42.53H227Z"/><path class="cls-1" d="M270.86,58.05c0-13.68.12-20.26-.16-28.31h13.81c.16,1.85.43,8.36.43,13.3,3.22-10.85,10.49-14.41,18.05-14.5V46.47c-9.85,0-17.59,3.93-17.59,20.17v46.5H270.86Z"/><path class="cls-1" d="M312.07,29.74H326.6v83.4H312.07ZM312.18,0h14.53V17.4H312.18Z"/><path class="cls-1" d="M342.24,113.14V0h14.54V113.14Z"/><path class="cls-1" d="M372.25,113.14V0h14.53V113.14Z"/></g></g></svg>